#N canvas 25 23 954 657 12;
#X obj 273 441 pool;
#X msg 174 53 set 1 2 3;
#X obj 272 563 print K;
#X msg 404 153 getall;
#X msg 174 82 set A k g;
#X obj 251 594 print V;
#X obj 290 532 print D;
#X msg 174 112 set A l m;
#X msg 177 141 set 2 34;
#X msg 176 172 set 3 17;
#X msg 298 51 clr A;
#X msg 695 42 mkdir fld1;
#X msg 302 127 get A;
#X msg 302 159 get 2;
#X msg 697 137 chdir;
#X msg 696 232 updir;
#X msg 696 375 getsub -1;
#X msg 400 279 getdir;
#X msg 20 79 echodir \$1;
#X obj 20 58 tgl 15 0 empty empty empty 0 -6 0 8 -262144 -1 -1 0 1
;
#X obj 20 160 tgl 15 0 empty empty empty 0 -6 0 8 -262144 -1 -1 0 1
;
#X msg 20 181 absdir \$1;
#X text 297 31 clear value;
#X text 298 105 get value;
#X obj 309 505 print C;
#X text 375 504 command;
#X text 357 531 directory (abs or rel to current);
#X text 320 594 data value;
#X text 338 562 data key;
#X msg 26 279 pool pool1;
#X msg 27 308 pool;
#X text 69 308 set to private;
#X msg 27 370 reset;
#X text 26 349 clear all pool data;
#X msg 410 53 clrall;
#X text 401 31 clear all values in dir;
#X text 404 132 get all values in dir;
#X text 314 442 pool name can be given as argument;
#X text 400 78 clear all values and dirs;
#X msg 408 100 clrrec;
#X msg 402 200 getrec;
#X text 402 178 get all values in dir and subdirs;
#X text 454 229 bang at EOL;
#X text 463 147 bang at EOL;
#X text 696 22 make absolute dir;
#X text 695 66 make relative dir;
#X msg 696 87 mksub fld2;
#X text 695 119 change to absolute dir;
#X msg 696 180 chsub fld2;
#X text 694 161 change to relative dir;
#X text 692 213 change to upper dir;
#X text 692 271 remove absolute dir;
#X msg 693 290 rmdir fld1;
#X msg 695 329 rmsub fld2;
#X text 694 310 remove relative dir;
#X text 399 259 get current dir;
#X text 461 278 always absolute;
#X text 694 357 get subdirs;
#X text 824 400 -1 ... infinite;
#X text 642 482 save dir and subdirs;
#X text 18 467 save all;
#X text 18 511 load all (add to existing data);
#X text 642 440 save data in current dir;
#X text 457 199 depth may be given;
#X text 24 255 data is shared among pool objects;
#X text 23 237 set pool name;
#X text 20 36 at each command;
#X text 20 20 echo current dir;
#X text 747 228 depth may be given;
#X text 748 244 default=1;
#X text 777 369 depth may be given;
#X text 777 386 default=1;
#X text 171 28 set values;
#X text 15 141 (default on);
#X text 7 125 report absolute dirs;
#X msg 28 417 help;
#X text 70 418 get some info;
#X msg 19 530 load c:/temp/pool.dat;
#X msg 21 484 save c:/temp/pool.dat;
#X msg 642 459 svdir c:/temp/pool.dat;
#X msg 642 501 svrec c:/temp/pool.dat;
#X msg 641 547 lddir c:/temp/pool.dat;
#X msg 641 594 ldrec c:/temp/pool.dat;
#X text 642 528 load data into current dir;
#X text 640 575 load data into current dir and below;
#X text 460 216 default=-1 (= infinite);
#X text 657 615 depth (default -1) and;
#X text 659 631 mkdir flag (default 1) can be given;
#X msg 401 321 cntall;
#X text 460 319 count all values in dir;
#X msg 401 347 cntrec;
#X text 462 345 ... and subdirs;
#X text 458 359 (depth may be given);
#X text 693 398 count subdirs;
#X msg 696 419 cntsub -1;
#X msg 175 227 add 3 14;
#X text 173 206 set but don't replace;
#X connect 0 0 5 0;
#X connect 0 1 2 0;
#X connect 0 2 6 0;
#X connect 0 3 24 0;
#X connect 1 0 0 0;
#X connect 3 0 0 0;
#X connect 4 0 0 0;
#X connect 7 0 0 0;
#X connect 8 0 0 0;
#X connect 9 0 0 0;
#X connect 10 0 0 0;
#X connect 11 0 0 0;
#X connect 12 0 0 0;
#X connect 13 0 0 0;
#X connect 14 0 0 0;
#X connect 15 0 0 0;
#X connect 16 0 0 0;
#X connect 17 0 0 0;
#X connect 18 0 0 0;
#X connect 19 0 18 0;
#X connect 20 0 21 0;
#X connect 21 0 0 0;
#X connect 29 0 0 0;
#X connect 30 0 0 0;
#X connect 32 0 0 0;
#X connect 34 0 0 0;
#X connect 39 0 0 0;
#X connect 40 0 0 0;
#X connect 46 0 0 0;
#X connect 48 0 0 0;
#X connect 52 0 0 0;
#X connect 53 0 0 0;
#X connect 75 0 0 0;
#X connect 77 0 0 0;
#X connect 78 0 0 0;
#X connect 79 0 0 0;
#X connect 80 0 0 0;
#X connect 81 0 0 0;
#X connect 82 0 0 0;
#X connect 88 0 0 0;
#X connect 90 0 0 0;
#X connect 94 0 0 0;
#X connect 95 0 0 0;
